<?xml version="1.0" encoding="UTF-8"?>
<svg version="1.1" viewBox="0 0 1024 848" width="256" height="212" xmlns="http://www.w3.org/2000/svg">
<path transform="translate(519,362)" d="m0 0h26l13 4 13 7 13 12 9 10 11 18 7 16 5 17 3 17 1 17-1 2 10-8 10-7 11-5 16-3 19 1 12 3 15 8 12 11 9 12 6 13 4 17 5 1 5 5v2h-6l-4-1v64l-4 6-3 2h-23l-6-8-1-69-4-10-4-6-9-8-7-3-6-1h-9l-10 3-8 6-6 7-4 9-1 5-1 67-7 8-4 1-40-1-7-7-3-7-1-105-2-17-5-14-8-13-8-8-10-5-3-1h-14l-10 4-10 9-6 8-7 15-3 17-1 110-4 8-6 6-12 1h-28l-5-3-3-3-1-4-1-65-4-13-6-8-5-4-8-4-12-2-11 2-10 6-6 7-4 8-2 6-1 69-3 3-7 6-21-2-5-7v-46l-12 8-4 3h-5l2-5 16-11h2l1-27-18 12-16 11h-4v-4l15-10 10-7 12-8 5-5 8-16 4-6 5-6h2v-2l14-10 14-6 12-2h16l15 3 14 7 9 7 4 2 1-17 4-20 5-15 9-19 8-12 12-14 13-10 12-6z" fill="#307495"/>
<path transform="translate(386,459)" d="m0 0h16l15 3 14 7 9 7 5 4 11 16 6 12 3 12v75l-1 7 2 2h-28l-5-3-3-3-1-4-1-65-4-13-6-8-5-4-8-4-12-2-11 2-10 6-6 7-4 8-2 6-1 69-3 3-7 6-21-2-5-7v-46l-12 8-4 3h-5l2-5 16-11h2l1-27-18 12-16 11h-4v-4l15-10 10-7 12-8 5-5 8-16 4-6 5-6h2v-2l14-10 14-6z" fill="#E7BE3B"/>
<path transform="translate(666,459)" d="m0 0 19 1 12 3 15 8 12 11 9 12 6 13 4 17 5 1 5 5v2h-6l-4-1v64l-4 6-3 2h-23l-6-8-1-69-4-10-4-6-9-8-7-3-6-1h-9l-10 3-8 6-6 7-4 9-1 5-1 67-7 8-4 1-21-1-3-6-1-8v-61l4-20 6-12 7-10 1-4 10-8 10-7 11-5z" fill="#49C3AD"/>
<path transform="translate(679,638)" d="m0 0h25l2 5 9 64 2 14 1 1 5-39 6-41 2-4h25l2 6v108l-1 7-2 2h-14l-2-5v-67l1-18h-2l-2 19-4 25-6 41-3 5h-12l-3-4-6-36-6-40-1-5-1 82-2 3h-12l-2-1-1-4v-110l1-7z" fill="#347797"/>
<path transform="translate(442,638)" d="m0 0h25l2 6 9 66 1 13h2l7-56 4-26 2-3h25l1 1v120l-2 2h-13l-3-2-1-86-11 76-2 9-2 3h-13l-3-5-4-26-5-35-3-17v-5h-2l1 2v83l-3 3h-12l-1-1-1-11v-104z" fill="#317595"/>
<path transform="translate(301,637)" d="m0 0 24 1 1 2v118l-2 3h-14l-2-2-1-87-7 46-5 35-3 7-1 1h-11l-3-3-3-13-9-61-1-12h-2l1 20v59l-1 8-2 2h-10l-4-2v-120l1-1h25l2 3 7 49 5 33 2-13 4-31 5-34 2-7z" fill="#307595"/>
<path transform="translate(536,638)" d="m0 0h39l10 5 6 9 2 7v17l-2 9-4 6-4 3v2l8 7 3 6 1 5v25l-4 11-5 6-8 4-5 1h-36l-2-2v-120zm18 17v33h11l6-3 2-3 1-7v-8l-2-9-3-3zm0 50v38l1 1h12l6-2 3-7v-18l-2-8-4-3-4-1z" fill="#307495"/>
<path transform="translate(773,638)" d="m0 0h39l8 3 7 8 3 9v20l-3 9-4 5-3 3 5 5 5 6 2 7v26l-4 11-8 8-10 3h-36l-2-3v-117zm18 17v33h12l5-2 2-4 1-9v-8l-2-7-3-3zm0 50v38l1 1h13l6-3 2-4v-22l-3-7-3-2-5-1z" fill="#307495"/>
<path transform="translate(101,638)" d="m0 0h18v50h21l1-49 1-1h17l1 7v108l-1 7-2 1h-14l-2-1-1-54-21-1v55l-2 1h-14l-2-1-1-3v-117z" fill="#327696"/>
<path transform="translate(176,638)" d="m0 0h17l1 2 1 99 2 4 9 2 5-2 2-7 1-97 1-1h16l1 1v100l-3 10-6 8-10 5-13 1-10-2-6-4-5-6-4-9-1-8v-40l1-55z" fill="#317596"/>
<path transform="translate(356,638)" d="m0 0h25l3 12 14 82 3 20v8l-1 1h-15l-3-5-3-18-23-1-1 13-2 9-2 2h-13l-2-2 1-14 17-101zm11 23-4 24-4 29v6h18l-2-17-6-40z" fill="#307595"/>
<path transform="translate(621,638)" d="m0 0h25l3 12 8 49 9 54v6l-2 2h-15l-2-3-3-19-1-2h-22l-2 18-2 5-1 1h-12l-3-1v-8l10-63 8-46zm11 24-1 1-8 57h19l-7-50-2-8z" fill="#307595"/>
<path transform="translate(958,638)" d="m0 0h24l2 3 18 108v11l-2 1h-14l-2-2-3-18v-4h-23l-3 20-1 3-2 1h-11l-3-1-1-4 10-63 9-53zm10 23-8 55v4h18l-1-13-6-41-2-5z" fill="#307595"/>
<path transform="translate(895,636)" d="m0 0h14l9 3 6 5 6 12 1 11-5 5h-10l-4-3-1-9-2-4-3-2h-7l-5 5-1 3v7l4 9 5 6v2l4 2 15 15 6 9 3 8 1 16-2 9-4 8-8 7-5 2-6 1h-10l-10-3-8-7-4-8-1-3v-15l3-2h12l2 1 2 13 1 4 7 2 6-1 3-3 1-2v-13l-5-10-6-7-8-7-8-8-7-11-3-11v-12l3-10 6-8 9-5z" fill="#307595"/>
<path transform="translate(53,636)" d="m0 0h14l9 3 7 6 5 10 1 5v16l-3 3h-12l-3-2-1-10-1-8-5-5h-7l-4 4-1 2v78l1 4 7 3 6-1 3-4 1-5 1-18 6-2h7l4 1 1 3v19l-3 11-6 8-10 5-5 1h-8l-12-3-8-7-4-8-1-4v-83l4-11 7-7z" fill="#317595"/>
<path transform="translate(619,482)" d="m0 0 3 1v6l7 9 2 11-1 12 5 1-1 4v20l1 8 1 33-2 3-2-5-3 1h-3l-1 4-3 1-1 5-4 3h-9l-5-5-2-5v-61l4-20 6-12 7-10z" fill="#54BAAE"/>
<path transform="translate(843,638)" d="m0 0h17l2 5v113l-3 5h-14l-3-5v-116z" fill="#337897"/>
<path transform="translate(611,791)" d="m0 0h6l4 4 15 28 2 4v-35l1-1h5l1 1v44l-1 1h-7l-4-4-16-31-1 35-5 1-2-4v-21l1-21z" fill="#50C5AF"/>
<path transform="translate(964,791)" d="m0 0h7l6 9 13 25 1 1 1-35h6v46l-6 1-5-4-14-27-3-6v35l-2 2-5-1v-45z" fill="#4BC3AD"/>
<path transform="translate(485,791)" d="m0 0h14l8 4 6 10 1 4v10l-3 9-7 8-5 2h-13l-6-3-6-7-3-8v-12l5-10 7-6zm3 5-5 3-4 6-1 8 1 10 4 7 6 3h8l6-4 3-7v-16l-4-7-5-3z" fill="#4EC4AF"/>
<path transform="translate(678,791)" d="m0 0h12l12 2 6 4 4 6 1 3v17l-6 9-6 4-3 1h-19l-1-1-1-10v-33zm8 5-1 1v35l2 1 10-1 6-4 3-6v-16l-4-6-5-3z" fill="#4DC3AE"/>
<path transform="translate(906,791)" d="m0 0h14l7 4 5 8 1 3v17l-4 8-6 5-4 2-7 1-9-2-8-7-4-10v-12l4-9 8-7zm2 5-6 4-3 5-1 13 3 9 5 5 2 1h9l5-3 3-5 1-4v-15l-5-8-4-2z" fill="#4EC4AF"/>
<path transform="translate(156,791)" d="m0 0h14l6 3 2 4-4 1-6-2h-10l-5 3-3 6-1 11 2 9 1 4 6 2h9l4-2v-10l-1-2-8-2v-4h16l1 2v17l-3 5-6 2h-15l-6-3-6-8-2-7v-11l4-10 7-6z" fill="#50C5B0"/>
<path transform="translate(543,791)" d="m0 0h5l1 1 1 33 2 5 5 2h8l4-4 2-37h6v37l-4 6-4 3-3 1h-13l-6-3-4-7-1-6v-13z" fill="#55C6B2"/>
<path transform="translate(221,790)" d="m0 0 5 1 6 14 10 29-1 4-6-2-3-8v-2l-19 1-5 10-4 1-2-1 3-10 11-31 3-5zm1 8-4 9-4 13 1 1h15l-2-9-5-14z" fill="#50C4B0"/>
<path transform="translate(753,791)" d="m0 0h6l3 5 7 19 7 20v2h-6l-3-5-2-5-19-1-3 10-1 1h-6l3-11 9-26 4-8zm3 7-4 8-4 12 1 3h15l-6-21z" fill="#50C4AF"/>
<path transform="translate(89,791)" d="m0 0h25l2 3-1 2h-20v16h17v5h-17v15h19l3 3-1 2h-28v-45z" fill="#51C4B0"/>
<path transform="translate(283,790)" d="m0 0 10 1 5 3v5l-5-1-5-2-7 1-5 3-3 7v14l3 9 6 2h7l9-3 1 5-4 3-3 1h-13l-7-4-4-5-3-7v-16l3-6 4-5 7-4z" fill="#59C7B3"/>
<path transform="translate(422,791)" d="m0 0h25l1 1v5l-19-1v16h16l1 4-1 1h-16v20l-5 1-2-1z" fill="#55BAAF"/>
<path transform="translate(354,790)" d="m0 0h3l-1 6-12 21-1 3-1 17-4 1-3-1-1-17-8-16-6-11v-2l7 1 8 14 3 6 2 1 2-5 9-16z" fill="#56C2B1"/>
<path transform="translate(822,791)" d="m0 0h5l1 5-1 1h-13v39l-2 2-5-1v-40h-13l-2-4 1-1z" fill="#4AC3AD"/>
<path transform="translate(34,791)" d="m0 0h5l1 1 1 39 19 1 1 5h-27l-1-5v-40z" fill="#4EBFAE"/>
<path transform="translate(964,791)" d="m0 0h7l5 7-1 5h2l2 5-5 1-4-8v35l-2 2-5-1v-45z" fill="#52C4B0"/>
<path transform="translate(906,791)" d="m0 0h14l7 4 5 8 1 3v17l-4 8-3 2-4-3 3-9v-15l-4-7-4-2-11-2-5 1-2 4-5 2 2-4 7-6z" fill="#56BFB0"/>
<path transform="translate(854,791)" d="m0 0h8l1 5-1 42h-8z" fill="#57BBB0"/>
<path transform="translate(246,315)" d="m0 0 9 1 47 12v6l-8-1-47-12-2-4z" fill="#5795AA"/>
<path transform="translate(241,343)" d="m0 0 23 3 35 5 1 4-1 2-20-2-34-5-4-1-1-4z" fill="#3E7F9C"/>
<path transform="translate(284,398)" d="m0 0h17l-1 5-40 3h-20l-1-3 1-2 24-2z" fill="#4F8DA5"/>
<path transform="translate(301,420)" d="m0 0 4 1v4l-15 3-42 7h-6l1-5 8-2z" fill="#42869E"/>
<path transform="translate(326,483)" d="m0 0h5l-1 4-19 10-27 14-11 6-3-1v-4l35-18 19-10z" fill="#3F819D"/>
<path transform="translate(307,442)" d="m0 0 4 2-1 3-46 13-11 3-5-1 2-4 13-4z" fill="#43879F"/>
<path transform="translate(702,795)" d="m0 0 5 1 5 7 1 3v17l-6 9-6 4-3 1h-9l-1-3 9-3 5-3 3-6v-16z" fill="#4BC3AE"/>
<path transform="translate(280,235)" d="m0 0 6 2 19 12 11 7 10 7-1 5-4-1-16-10-19-12-7-5z" fill="#5194A7"/>
<path transform="translate(255,287)" d="m0 0 6 1 34 13 10 4 2 2-1 4-6-1-29-11-17-6-1-3z" fill="#5195A7"/>
<path transform="translate(315,463)" d="m0 0h4l1 3-4 3-41 16-12 5h-5l1-4 8-4 33-13z" fill="#44859F"/>
<path transform="translate(239,372)" d="m0 0 51 2 7 1 1 4-1 1-41-1-17-1-1-3z" fill="#3E7F9C"/>
<path transform="translate(266,260)" d="m0 0 10 4 28 14 11 6v4l-7-1-25-12-17-9-1-5z" fill="#4C95A6"/>
<path transform="translate(297,211)" d="m0 0 6 3 17 14 16 12 3 3-1 4-2 1-11-8-16-13-10-8-3-3z" fill="#5792A9"/>
<path transform="translate(218,796)" d="m0 0h2l1 5-6 19 7 1v5l-9 1-5 10-4 1-2-1 3-10 10-28z" fill="#52C6B1"/>
<path transform="translate(315,190)" d="m0 0 5 1 32 32 1 5h-4l-7-7-8-7-19-19-1-4z" fill="#4C8CA4"/>
<path transform="translate(337,171)" d="m0 0 4 1 9 10 9 11 1 3h2l8 11-1 4-4-1-11-13-9-11-8-10-1-3z" fill="#4987A2"/>
<path transform="translate(361,152)" d="m0 0 5 5 22 33 1 5-6-1-11-17-8-12-5-8v-4z" fill="#5592A8"/>
<path transform="translate(410,126)" d="m0 0 5 1 11 27 5 13v3l-5-1-5-10-10-26-2-6z" fill="#4C8BA2"/>
<path transform="translate(385,139)" d="m0 0 4 1 13 24 7 14v4l-4-1-6-9-8-15-7-14z" fill="#4E8DA5"/>
<path transform="translate(437,118)" d="m0 0h5l5 15 6 23-1 5-4-2-6-20-5-18z" fill="#4E8BA4"/>
<path transform="translate(465,111)" d="m0 0 5 1 2 5 5 32-1 4-4-1-3-13-4-23z" fill="#4787A1"/>
<path transform="translate(494,108)" d="m0 0h5l1 4 2 35-5 1-1-1-3-38z" fill="#478AA2"/>
<path transform="translate(523,107)" d="m0 0 5 1v13l-1 25h-5l-1-1v-13l1-23z" fill="#397D9A"/>
<path transform="translate(323,511)" d="m0 0h2l-2 7-18 12-16 11h-4v-4l15-10 10-7 12-8z" fill="#42849F"/>
<path transform="translate(571,791)" d="m0 0h6v37l-1 2h-3l-1-10-1-1z" fill="#4DC0AD"/>
<path transform="translate(822,791)" d="m0 0h5l1 5-1 1h-13l-1 8-3-3-1-4-15-1-2-4 1-1z" fill="#5FC2B4"/>
<path transform="translate(552,110)" d="m0 0 5 1-3 24-3 12-4-1-1-2 5-33z" fill="#4684A0"/>
<path transform="translate(581,114)" d="m0 0 5 1-4 17-5 17-2 2h-3l1-10 6-24z" fill="#5A94AB"/>
<path transform="translate(428,797)" d="m0 0h1v15h16l1 4-1 1h-16v20l-5 1-2-1 1-4 3 1v-28l1-1z" fill="#75D0C0"/>
<path transform="translate(610,122)" d="m0 0 3 1-2 9-10 25-4-1 1-7 7-19 3-6z" fill="#568FA8"/>
<path transform="translate(636,134)" d="m0 0 4 1-4 10-11 21h-4l1-6 10-21z" fill="#4F8BA4"/>
<path transform="translate(661,148)" d="m0 0h3v5l-11 17-5 7-5 1 1-5 14-22z" fill="#5594A9"/>
<path transform="translate(686,163)" d="m0 0 2 1-1 6-13 16-5 5h-4l2-5 11-14 5-7z" fill="#4E89A4"/>
<path transform="translate(494,324)" d="m0 0 5 1 5 6-1 4-4 5-4-1-7-7v-4z" fill="#4485A0"/>
<path transform="translate(560,322)" d="m0 0 5 2 5 3-1 4-7 8-4-2-4-5 1-4z" fill="#3D839D"/>
<path transform="translate(566,275)" d="m0 0 4 1 5 9-1 4-6 3-4-1-4-7 1-4z" fill="#3F849E"/>
<path transform="translate(530,253)" d="m0 0 5 2v7l-1 3-2 1h-9l-2-3-1-9z" fill="#498AA1"/>
<path transform="translate(706,183)" d="m0 0 5 1-2 4-11 12-8 7-4-1 2-4 6-7h2l2-4z" fill="#498BA3"/>
<path transform="translate(505,259)" d="m0 0 4 1 3 5-1 5-6 5-4-1-5-6 1-4z" fill="#44829E"/>
<path transform="translate(566,301)" d="m0 0h11l1 5-2 9-3 1-8-3v-7z" fill="#387F9A"/>
<path transform="translate(513,337)" d="m0 0 5 1 6 3v9l-1 1-8-1-6-2 1-5z" fill="#3C809B"/>
<path transform="translate(678,791)" d="m0 0h12l12 2 2 2-1 1 2 5-1 3-5-5-9-2h-4l-1 11h-2l-1-4v-11l-5 1z" fill="#53C5B1"/>
<path transform="translate(486,277)" d="m0 0 4 1 6 4-3 10-5 1-7-3 3-9z" fill="#41859E"/>
<path transform="translate(480,303)" d="m0 0h11l1 5v7l-5 2h-5l-2-5-1-8z" fill="#3A7F9B"/>
<path transform="translate(548,258)" d="m0 0 4 1 7 5-1 5-6 5-8-6 1-6z" fill="#418A9E"/>
<path transform="translate(542,337)" d="m0 0 4 1 3 4 1 4-5 3-8 2-2-2-1-8 2-2z" fill="#377A99"/>
<path transform="translate(726,204)" d="m0 0h3l-1 5-8 8-12 9h-3l1-5 11-10z" fill="#4D8FA5"/>
<path transform="translate(570,806)" d="m0 0h1l1 13 1 1v10h2l-2 4-4 3-3 1h-13v-2h2v-2l12-3 2-3z" fill="#60CAB7"/>
<path transform="translate(369,365)" d="m0 0 3 1 2 5-1 4-6 5-4-2-5-5 1-3z" fill="#E8C248"/>
<path transform="translate(396,436)" d="m0 0 4 1 4 5v5l-7 2h-6l-1-1v-7l3-4z" fill="#E8C247"/>
<path transform="translate(354,790)" d="m0 0h3l-1 6-10 17-5 1-1-3 11-19z" fill="#5ABEB2"/>
<path transform="translate(414,424)" d="m0 0 5 2 5 3-3 5-5 5-5-1-3-4 1-4z" fill="#E7BF40"/>
<path transform="translate(371,436)" d="m0 0 8 1 2 1v9l-1 1h-8l-5-3 1-6z" fill="#E7C041"/>
<path transform="translate(354,423)" d="m0 0 6 1 3 3v6l-5 5-4-2-5-6 1-3h2z" fill="#E8C34A"/>
<path transform="translate(992,791)" d="m0 0h6v18h-3l-2 19h-1z" fill="#5FBEB3"/>
<path transform="translate(758,252)" d="m0 0h4l-1 5-21 11-4-1 1-4z" fill="#3F859D"/>
<path transform="translate(742,228)" d="m0 0h5l-1 4-10 7-11 7h-3l1-5z" fill="#478EA2"/>
<path transform="translate(861,800)" d="m0 0h1v38h-4v-12l-1-6v-11l2-6z" fill="#49C4AD"/>
<path transform="translate(383,361)" d="m0 0h8l4 2-1 8-6 2-6-2-1-8z" fill="#EAC656"/>
<path transform="translate(320,791)" d="m0 0 7 1 8 14 1 4-2 1-2 3-12-21z" fill="#4DC4AF"/>
<path transform="translate(423,405)" d="m0 0h5l2 2v10l-2 3-5-1-5-4 2-7z" fill="#E8C043"/>
<path transform="translate(635,384)" d="m0 0 5 2 4 4-2 6-3 3-6-1-3-3 4-10z" fill="#5DC8B5"/>
<path transform="translate(422,382)" d="m0 0 4 1 3 12-3 2h-6l-4-5 1-5z" fill="#E7C042"/>
<path transform="translate(652,369)" d="m0 0h4l3 6-2 4-5 4-4-1-4-4 1-4z" fill="#54C6B1"/>
<path transform="translate(405,367)" d="m0 0 6 1 5 3 1 3-6 7-5-2-4-4 1-5z" fill="#E8C043"/>
<path transform="translate(351,381)" d="m0 0 5 1 3 3-2 7-3 3h-6l-2-2 1-7 2-4z" fill="#E8C146"/>
<path transform="translate(707,385)" d="m0 0 4 1 3 7-1 5-2 1h-6l-3-3-1-5 5-5z" fill="#52C5B0"/>
<path transform="translate(640,427)" d="m0 0 5 1 3 2 1 6-4 5-5-1-4-5v-5z" fill="#67C2B8"/>
<path transform="translate(707,408)" d="m0 0h8l1 1-1 12-4 1-6-3v-8z" fill="#59C7B3"/>
<path transform="translate(769,279)" d="m0 0h5l-1 4-19 8h-5v-4l14-6z" fill="#4A8CA3"/>
<path transform="translate(681,440)" d="m0 0h6l3 5-1 5-5 1h-7l-1-1v-6z" fill="#5CC9B5"/>
<path transform="translate(658,439)" d="m0 0 8 3 1 1v7l-5 2-8-3-1-3 4-6z" fill="#5CC7B5"/>
<path transform="translate(699,428)" d="m0 0 7 1 2 1-1 6-6 6-4-2-2-3v-5z" fill="#59C6B3"/>
<path transform="translate(690,369)" d="m0 0 8 3 3 4-3 5-5 2-6-5 1-7z" fill="#63CAB8"/>
<path transform="translate(666,365)" d="m0 0h12l1 1v7l-1 2h-10l-3-6z" fill="#4BC3AD"/>
<path transform="translate(781,305)" d="m0 0 3 1-1 4-9 3-13 3-2-4 8-3z" fill="#4E89A4"/>
<path transform="translate(906,791)" d="m0 0h14l4 4-2 1v2l-12-2-4-1-5 1-2 4-5 2 2-4 7-6z" fill="#5CBEB2"/>
<path transform="translate(628,408)" d="m0 0h10l1 1v9l-3 2h-6l-2-5z" fill="#4BC3AD"/>
<path transform="translate(345,403)" d="m0 0 7 1 2 2v7l-5 4-5-1v-12z" fill="#E8C248"/>
<path transform="translate(784,334)" d="m0 0h5l1 4-13 3-10 1-1-5z" fill="#40849E"/>
<path transform="translate(786,362)" d="m0 0h6l1 5-3 1-16 1-3-2v-3l3-1z" fill="#5595A9"/>
<path transform="translate(319,546)" d="m0 0h3l-1 5-14 10h-5l2-5z" fill="#4E89A4"/>
<path transform="translate(773,418)" d="m0 0 16 1 2 1v5h-8l-9-2-2-4z" fill="#5692A9"/>
<path transform="translate(807,798)" d="m0 0h1l1 18v7l3 4 2 9-2 2-5-1z" fill="#54BAAE"/>
<path transform="translate(773,391)" d="m0 0h19l1 5h-17l-3-2z" fill="#43859F"/>
<path transform="translate(679,793)" d="m0 0h3l1 4v8l1 8-4-1-2-1v-17z" fill="#53BAAE"/>
<path transform="translate(425,791)" d="m0 0h22l1 1v5l-9-1-8-1-1-2-2 1-2-1-1 4-1-5z" fill="#63C4B6"/>
<path transform="translate(769,445)" d="m0 0 9 1 7 2v5l-10-1-6-3-1-2z" fill="#6094A7"/>
<path transform="translate(610,122)" d="m0 0 3 1-2 9-4 11h-2l-1-11 4-8z" fill="#81B1BF"/>
<path transform="translate(762,472)" d="m0 0 8 1 8 3-1 5-7-1-8-4z" fill="#619BAF"/>
<path transform="translate(429,812)" d="m0 0h16l1 4-1 1h-15l-2-4z" fill="#66C1B7"/>
<path transform="translate(752,498)" d="m0 0 7 1 5 3 3 4v2l-7-1-8-6z" fill="#5C97AC"/>
<path transform="translate(793,792)" d="m0 0h15v6l-14-1-2-4z" fill="#5DC8B5"/>
<path transform="translate(341,825)" d="m0 0h1v12l-4 1-3-1v-9z" fill="#59BFB1"/>
<path transform="translate(48,832)" d="m0 0h12l1 5h-15l2-1z" fill="#55BAAF"/>
<path transform="translate(718,479)" d="m0 0 4 1 7 8 6 10-1 4-2-6-3-1-3-6v-2l-4-1z" fill="#59BCB1"/>
<path transform="translate(640,427)" d="m0 0 5 1 1 4-5 1v5l-4-2-1-1v-5z" fill="#58C7B3"/>
<path transform="translate(287,791)" d="m0 0 9 1 2 2v5l-5-1-6-3z" fill="#57C5B2"/>
<path transform="translate(575,807)" d="m0 0 2 2v19l-1 2-2-1v-21z" fill="#49C3AD"/>
<path transform="translate(571,791)" d="m0 0h6v18h-1l-1-11v7l-2 1-1-10h-1z" fill="#5ABDB1"/>
<path transform="translate(635,590)" d="m0 0 2 3-2 5-5 5-4 1-3-3 1-2 6-1 4-4z" fill="#57BCB0"/>
<path transform="translate(422,811)" d="m0 0 2 1 1 7v14l-3 1z" fill="#49C3AD"/>
<path transform="translate(327,802)" d="m0 0 8 4 1 4-2 1-2 3-5-8z" fill="#4FC2AF"/>
<path transform="translate(744,524)" d="m0 0 5 2 4 4v2h-6l-3-2z" fill="#518DA6"/>
<path transform="translate(34,791)" d="m0 0h5l1 1v5h-2l-2 4-2-1-1-8z" fill="#61C1B5"/>
<path transform="translate(354,790)" d="m0 0h3l-1 6-5 3h-3l2-5z" fill="#5CC3B4"/>
<path transform="translate(430,792)" d="m0 0 2 2 7 1v1l-10 1-1 8-2-2v-10z" fill="#49C3AD"/>
<path transform="translate(822,791)" d="m0 0h5l1 5-1 1h-8l1-5z" fill="#76D0C1"/>
<path transform="translate(422,791)" d="m0 0 3 1v19l-3-4z" fill="#49C4AD"/>
<path transform="translate(385,139)" d="m0 0 4 1 2 3-1 4-3 2-3-6z" fill="#5B95A7"/>
<path transform="translate(974,799)" d="m0 0 1 4h2l2 5-5 1-3-6v-3z" fill="#64C2B6"/>
<path transform="translate(992,791)" d="m0 0h6v5l-4 4-2-4z" fill="#53C5B1"/>
<path transform="translate(812,829)" d="m0 0h1l1 7-2 2-5-1 1-6 2 1z" fill="#54C6B1"/>
<path transform="translate(922,793)" d="m0 0 5 2 1 4-2 2h-1l-1 2-3-5 2-3z" fill="#4FC5AF"/>
<path transform="translate(59,832)" d="m0 0 2 1v4h-12v-2l2-2 4 1h3 1z" fill="#4AC3AD"/>
<path transform="translate(341,819)" d="m0 0h1v6l-5 3h-2v-3l5-5z" fill="#51BDAE"/>
<path transform="translate(428,797)" d="m0 0h1v16l-2 1-1-2v-6l1-1z" fill="#95DCCF"/>
<path transform="translate(710,808)" d="m0 0h1l2 13h-3l-1-4v-8z" fill="#54BAAE"/>
<path transform="translate(425,791)" d="m0 0h14v1l-9 1-2 1-2-1-1 4-1-5z" fill="#A9DCD6"/>
<path transform="translate(41,832)" d="m0 0h7v4l-3 1-4-1z" fill="#49C4AD"/>
<path transform="translate(88,818)" d="m0 0h2l1 10-3 3z" fill="#66C3B7"/>
<path transform="translate(677,811)" d="m0 0 4 1 2 5h-2l-1 3-3-5z" fill="#6DC4BA"/>
<path transform="translate(543,792)" d="m0 0 5 1-2 4-2 3-1-1z" fill="#4CADA9"/>
</svg>
